<svg width="329" height="634" viewBox="0 0 329 634" fill="none" xmlns="http://www.w3.org/2000/svg">
<path d="M6.27122 232.274V218C6.27122 215.239 8.5098 213 11.2712 213H108.694C111.456 213 113.694 215.239 113.694 218V232.274L150.371 295.516L146.614 611.615C146.585 614.099 144.735 616.185 142.273 616.512L33.127 631L-25.2916 600.876C-26.9549 600.018 -28 598.303 -28 596.432V295.516L6.27122 232.274Z" fill="#72A8D5"/>
<path d="M6.27122 232.274V218C6.27122 215.239 8.5098 213 11.2712 213H108.694C111.456 213 113.694 215.239 113.694 218V232.274M6.27122 232.274H113.694M6.27122 232.274L33.127 295.516M6.27122 232.274L-28 295.516M113.694 232.274L150.371 295.516M33.127 295.516V631M33.127 295.516H-28M33.127 295.516H150.371M33.127 631L-25.2916 600.876C-26.9549 600.018 -28 598.303 -28 596.432V295.516M33.127 631L142.273 616.512C144.735 616.185 146.585 614.099 146.614 611.615L150.371 295.516" stroke="#29618E" stroke-width="5"/>
<path d="M78.3017 416.673C49.0325 417.694 37.9386 433.643 35.6483 442.2C35.5499 442.568 35.5107 442.942 35.5107 443.323V622.593C35.5107 625.614 38.1705 627.946 41.1662 627.549L140.221 614.451C142.686 614.125 144.537 612.038 144.566 609.553L146.742 422.807C146.758 421.429 146.212 420.112 145.221 419.156C135.015 409.31 116.388 391.587 105.778 390.596C91.8146 389.292 94.9676 398.419 98.1207 401.462C101.274 404.504 115.687 415.369 78.3017 416.673Z" fill="#EFEFF0"/>
<path d="M-1.58538 467.305C9.12843 467.997 24.3063 457.209 30.5561 451.729V627.397L-26.1379 598.119V467.305C-26.4355 465.574 -25.7808 462.199 -20.781 462.546C-14.5312 462.978 -14.9777 466.44 -1.58538 467.305Z" fill="#EFEFF0"/>
<circle cx="80.5543" cy="383.713" r="6.75647" fill="#EFEFF0"/>
<path d="M132.044 604.278C150.684 624.429 173.292 628.208 183.368 629.467C201 630.307 238.186 631.482 245.869 629.467C255.473 626.948 272.318 625.846 293.414 604.278C314.51 582.709 323.799 536.896 325.688 530.599C327.577 524.301 306.796 498.01 211.706 499.269C116.616 500.529 99.7703 520.68 100.872 530.599C101.974 540.517 108.744 579.088 132.044 604.278Z" fill="#72A8D5" stroke="#29618E" stroke-width="5"/>
<path d="M211.706 499.269C116.616 500.529 99.7708 520.68 100.872 530.599C102.009 540.832 130.784 559.881 211.706 559.881C288.218 559.881 316.399 545.082 325.688 530.599C329.238 525.065 306.796 498.01 211.706 499.269Z" fill="#72A8D5" stroke="#29618E" stroke-width="5"/>
<path d="M210.61 506.712C129.593 507.628 115.241 522.294 116.18 529.512C117.148 536.96 141.665 550.823 210.61 550.823C275.799 550.823 299.809 540.053 307.723 529.512C310.747 525.485 291.627 505.795 210.61 506.712Z" fill="#3F88C5" stroke="#29618E" stroke-width="5"/>
<path d="M208.476 532.356C174.964 532.716 155.025 539.863 147.668 543.166C157.577 545.118 175.595 548.571 208.476 548.571C239.105 548.571 264.179 546.619 276.041 543.166C266.732 539.562 241.988 531.995 208.476 532.356Z" fill="#EFEFF0"/>
<path d="M236.758 40.7502C222.581 28.4638 228.291 13.3817 232.623 7.67172C235.299 2.94619 255.66 -3.55139 268.064 10.6252C280.469 24.8017 278.697 41.9317 270.427 46.6573C262.157 51.3828 254.478 56.1081 236.758 40.7502Z" fill="#E2A94F"/>
<path d="M242.074 37.2061C236.167 31.2992 228.291 13.3817 232.623 7.67172C235.299 2.94619 255.66 -3.5514 268.064 10.6252C280.469 24.8017 278.697 41.9317 270.427 46.6573C262.157 51.3828 247.981 43.113 242.074 37.2061Z" fill="#FAD488"/>
<path d="M264.519 34.2523C257.904 37.0876 250.736 32.2833 247.98 29.5267C246.011 25.5888 243.018 17.0041 246.799 14.1688C251.524 10.6246 259.203 15.3502 262.747 18.8943C266.291 22.4385 272.789 30.7081 264.519 34.2523Z" fill="#E2A94F"/>
<path d="M245.027 21.2574C247.981 20.2729 255.306 21.2574 260.976 30.7085M232.623 7.67172C228.291 13.3817 222.581 28.4638 236.758 40.7502C254.478 56.1081 262.157 51.3828 270.427 46.6573C278.697 41.9317 280.469 24.8017 268.064 10.6252C255.66 -3.5514 235.299 2.94619 232.623 7.67172Z" stroke="#BA6F31" stroke-width="3"/>
<path d="M245.027 17.7134C244.437 19.8792 244.318 25.2742 248.571 29.5272C253.888 34.8434 260.385 32.4806 262.157 29.5272" stroke="#BA6F31" stroke-width="3"/>
<path d="M256.194 140.257C252.332 138.673 250.954 139.019 250.748 139.391C249.758 139.704 245.426 139.886 243.94 139.886C242.455 139.886 230.077 138.524 229.829 137.905C229.582 137.286 230.325 124.29 230.943 119.339C231.562 114.387 231.067 105.475 230.943 102.009C230.82 98.5436 231.191 94.7065 232.057 93.2211C232.924 91.7358 242.95 94.0876 246.292 94.7065C249.634 95.3253 260.032 94.3351 261.888 94.7065C263.745 95.0778 271.543 95.5729 275.133 95.8205C278.722 96.068 280.455 97.4296 280.95 98.6674C281.445 99.9052 278.103 126.27 277.36 133.078C276.618 139.886 278.351 138.648 277.36 140.257C276.37 141.866 272.904 141.99 271.543 141.99C270.181 141.99 261.022 142.238 256.194 140.257Z" fill="#B4725D" stroke="#652D27" stroke-width="3"/>
<path d="M255.681 140.257C251.948 138.673 250.616 139.019 250.416 139.391C249.459 139.704 245.272 139.886 243.836 139.886C242.4 139.886 230.435 138.524 230.196 137.905C229.956 137.286 230.674 124.29 231.272 119.339C231.871 114.387 231.392 105.475 231.272 102.009C231.153 98.5436 231.512 94.7065 232.349 93.2211C233.187 91.7357 242.879 94.0876 246.109 94.7065C249.34 95.3253 259.39 94.3351 261.185 94.7065C262.98 95.0778 270.518 95.5729 273.988 95.8205C277.458 96.068 276.493 100.772 276.972 102.009C277.45 103.247 274.705 126.146 273.988 132.954C273.27 139.762 277.099 138.648 276.141 140.257C275.184 141.866 271.834 141.99 270.518 141.99C269.202 141.99 260.347 142.238 255.681 140.257Z" fill="#DBA999"/>
<path d="M268.263 108.012C268.544 109.705 266.277 127.138 265.109 135.643L265.109 128.175C265.109 123.197 267.913 105.896 268.263 108.012Z" fill="#652D27"/>
<path d="M248.399 105.628C248.679 107.321 246.413 124.754 245.245 133.26L245.245 125.792C245.245 120.813 248.049 103.512 248.399 105.628Z" fill="#652D27"/>
<path d="M255.543 100.066C255.894 101.759 253.061 119.192 251.6 127.697L251.6 120.229C251.6 115.251 255.105 97.95 255.543 100.066Z" fill="#652D27"/>
<path d="M261.112 104.833C261.392 106.526 259.126 123.96 257.958 132.465L257.958 124.997C257.958 120.018 260.761 102.718 261.112 104.833Z" fill="#652D27"/>
<path d="M264.29 101.656C264.57 103.349 262.304 120.782 261.135 129.287L261.135 121.819C261.135 116.841 263.939 99.5401 264.29 101.656Z" fill="#652D27"/>
<path d="M244.426 105.628C244.707 107.321 242.44 124.754 241.272 133.26L241.272 125.792C241.272 120.813 244.076 103.512 244.426 105.628Z" fill="#652D27"/>
<path d="M257.933 105.628C258.214 107.321 255.947 124.754 254.779 133.26L254.779 125.792C254.779 120.813 257.583 103.512 257.933 105.628Z" fill="#652D27"/>
<path d="M256.194 140.257C252.332 138.673 250.954 139.019 250.748 139.391C249.758 139.704 245.426 139.886 243.94 139.886C242.455 139.886 230.077 138.524 229.829 137.905C229.582 137.286 230.325 124.29 230.943 119.339C231.562 114.387 231.067 105.475 230.943 102.009C230.82 98.5436 231.191 94.7065 232.057 93.2211C232.924 91.7358 242.95 94.0876 246.292 94.7065C249.634 95.3254 260.032 94.3351 261.888 94.7065C263.745 95.0778 271.543 95.5729 275.133 95.8205C278.722 96.068 280.455 97.4296 280.95 98.6674C281.445 99.9052 278.103 126.27 277.36 133.078C276.618 139.886 278.351 138.648 277.36 140.257C276.37 141.866 272.904 141.99 271.543 141.99C270.181 141.99 261.022 142.238 256.194 140.257Z" stroke="#652D27" stroke-width="3"/>
<path d="M236 221.75C221.823 209.464 227.533 194.382 231.865 188.672C234.541 183.946 254.902 177.449 267.306 191.625C279.711 205.802 277.939 222.932 269.669 227.657C261.4 232.383 253.721 237.108 236 221.75Z" fill="#E2A94F"/>
<path d="M241.316 218.206C235.409 212.299 227.533 194.382 231.865 188.672C234.541 183.946 254.902 177.449 267.306 191.625C279.711 205.802 277.939 222.932 269.669 227.657C261.4 232.383 247.223 224.113 241.316 218.206Z" fill="#FAD488"/>
<path d="M263.761 215.252C257.146 218.088 249.979 213.283 247.222 210.527C245.253 206.589 242.26 198.004 246.041 195.169C250.766 191.625 258.445 196.35 261.989 199.894C265.533 203.438 272.031 211.708 263.761 215.252Z" fill="#E2A94F"/>
<path d="M244.27 202.257C247.223 201.273 254.548 202.257 260.218 211.708M231.865 188.672C227.533 194.382 221.823 209.464 236 221.75C253.721 237.108 261.4 232.383 269.669 227.657C277.939 222.932 279.711 205.802 267.306 191.625C254.902 177.449 234.541 183.946 231.865 188.672Z" stroke="#BA6F31" stroke-width="3"/>
<path d="M244.269 198.713C243.679 200.879 243.561 206.274 247.814 210.527C253.13 215.843 259.627 213.481 261.399 210.527" stroke="#BA6F31" stroke-width="3"/>
<path d="M236.492 281.758C248.778 267.581 263.86 273.291 269.57 277.623C274.296 280.299 280.794 300.66 266.617 313.064C252.44 325.469 235.31 323.697 230.585 315.427C225.859 307.157 221.134 299.478 236.492 281.758Z" fill="#B4725D"/>
<path d="M240.036 287.074C245.943 281.167 263.86 273.291 269.57 277.623C274.296 280.299 280.794 300.66 266.617 313.064C252.44 325.469 235.31 323.697 230.585 315.427C225.859 307.157 234.129 292.981 240.036 287.074Z" fill="#DBA999"/>
<path d="M242.99 309.52C240.155 302.904 244.959 295.737 247.716 292.981C251.654 291.012 260.239 288.019 263.074 291.8C266.618 296.525 261.893 304.204 258.348 307.748C254.804 311.292 246.535 317.79 242.99 309.52Z" fill="#B4725D"/>
<path d="M255.985 290.027C256.969 292.981 255.985 300.306 246.534 305.976M269.57 277.623C263.86 273.291 248.778 267.581 236.492 281.758C221.134 299.478 225.859 307.157 230.585 315.427C235.31 323.697 252.44 325.469 266.617 313.064C280.794 300.66 274.296 280.299 269.57 277.623Z" stroke="#652D27" stroke-width="3"/>
<path d="M259.529 290.027C257.363 289.437 251.968 289.319 247.715 293.572C242.399 298.888 244.762 305.385 247.715 307.157" stroke="#652D27" stroke-width="3"/>
<path d="M236 401.75C221.823 389.464 227.533 374.382 231.865 368.672C234.541 363.946 254.902 357.449 267.306 371.625C279.711 385.802 277.939 402.932 269.669 407.657C261.4 412.383 253.721 417.108 236 401.75Z" fill="#E2A94F"/>
<path d="M241.316 398.206C235.409 392.299 227.533 374.382 231.865 368.672C234.541 363.946 254.902 357.449 267.306 371.625C279.711 385.802 277.939 402.932 269.669 407.657C261.4 412.383 247.223 404.113 241.316 398.206Z" fill="#FAD488"/>
<path d="M263.761 395.252C257.146 398.088 249.979 393.283 247.222 390.527C245.253 386.589 242.26 378.004 246.041 375.169C250.766 371.625 258.445 376.35 261.989 379.894C265.533 383.438 272.031 391.708 263.761 395.252Z" fill="#E2A94F"/>
<path d="M244.27 382.257C247.223 381.273 254.548 382.257 260.218 391.708M231.865 368.672C227.533 374.382 221.823 389.464 236 401.75C253.721 417.108 261.4 412.383 269.669 407.657C277.939 402.932 279.711 385.802 267.306 371.625C254.902 357.449 234.541 363.946 231.865 368.672Z" stroke="#BA6F31" stroke-width="3"/>
<path d="M244.269 378.713C243.679 380.879 243.561 386.274 247.814 390.527C253.13 395.843 259.627 393.481 261.399 390.527" stroke="#BA6F31" stroke-width="3"/>
<path d="M58.7578 40.7502C44.5812 28.4638 50.2911 13.3817 54.6228 7.67172C57.2988 2.94619 77.6597 -3.55139 90.0642 10.6252C102.469 24.8017 100.697 41.9317 92.427 46.6573C84.1573 51.3828 76.4785 56.1081 58.7578 40.7502Z" fill="#E2A94F"/>
<path d="M64.074 37.2061C58.1671 31.2992 50.2911 13.3817 54.6228 7.67172C57.2988 2.94619 77.6597 -3.5514 90.0642 10.6252C102.469 24.8017 100.697 41.9317 92.427 46.6573C84.1573 51.3828 69.9809 43.113 64.074 37.2061Z" fill="#FAD488"/>
<path d="M86.5192 34.2523C79.9035 37.0876 72.7365 32.2833 69.9799 29.5267C68.011 25.5888 65.0181 17.0041 68.7986 14.1688C73.5241 10.6246 81.203 15.3502 84.7472 18.8943C88.2913 22.4385 94.7889 30.7081 86.5192 34.2523Z" fill="#E2A94F"/>
<path d="M67.0275 21.2574C69.981 20.2729 77.3056 21.2574 82.9761 30.7085M54.6228 7.67172C50.2911 13.3817 44.5812 28.4638 58.7578 40.7502C76.4785 56.1081 84.1573 51.3828 92.427 46.6573C100.697 41.9317 102.469 24.8017 90.0642 10.6252C77.6597 -3.5514 57.2988 2.94619 54.6228 7.67172Z" stroke="#BA6F31" stroke-width="3"/>
<path d="M67.0272 17.7134C66.4365 19.8792 66.3184 25.2742 70.5714 29.5272C75.8876 34.8434 82.3852 32.4806 84.1572 29.5272" stroke="#BA6F31" stroke-width="3"/>
<path d="M60.2498 101.758C72.5362 87.5812 87.6183 93.2911 93.3283 97.6228C98.0538 100.299 104.551 120.66 90.3748 133.064C76.1983 145.469 59.0683 143.697 54.3427 135.427C49.6172 127.157 44.8919 119.478 60.2498 101.758Z" fill="#B4725D"/>
<path d="M63.7939 107.074C69.7008 101.167 87.6183 93.2911 93.3283 97.6228C98.0538 100.299 104.551 120.66 90.3748 133.064C76.1983 145.469 59.0683 143.697 54.3427 135.427C49.6172 127.157 57.887 112.981 63.7939 107.074Z" fill="#DBA999"/>
<path d="M66.7482 129.52C63.9129 122.904 68.7172 115.737 71.4738 112.981C75.4117 111.012 83.9964 108.019 86.8317 111.8C90.3758 116.525 85.6503 124.204 82.1062 127.748C78.562 131.292 70.2924 137.79 66.7482 129.52Z" fill="#B4725D"/>
<path d="M79.7426 110.027C80.7271 112.981 79.7426 120.306 70.2915 125.976M93.3283 97.6228C87.6183 93.2911 72.5362 87.5812 60.2498 101.758C44.8919 119.478 49.6172 127.157 54.3427 135.427C59.0683 143.697 76.1983 145.469 90.3748 133.064C104.551 120.66 98.0538 100.299 93.3283 97.6228Z" stroke="#652D27" stroke-width="3"/>
<path d="M83.2871 110.027C81.1212 109.437 75.7263 109.319 71.4733 113.572C66.1571 118.888 68.5199 125.385 71.4733 127.157" stroke="#652D27" stroke-width="3"/>
<path d="M142.043 40.9925C133.502 29.1859 143.509 14.0928 149.579 8.02207C150.835 6.24272 155.671 2.55841 164.966 2.056C176.584 1.42799 176.27 6.13805 183.492 13.3601C190.714 20.5822 186.318 17.4422 187.888 29.0603C189.458 40.6785 174.072 46.0165 170.618 47.9006C167.164 49.7846 152.719 55.7507 142.043 40.9925Z" fill="#652D27"/>
<path d="M146.439 36.9108C139.845 27.7955 143.509 14.0928 149.579 8.02207C150.835 6.24272 155.671 2.55841 164.966 2.056C176.584 1.42799 176.27 6.13805 183.492 13.3601C190.714 20.5822 186.318 17.4422 187.888 29.0603C189.458 40.6785 174.072 46.9581 170.618 47.9006C167.164 48.843 153.033 46.0262 146.439 36.9108Z" fill="#B4725D"/>
<path d="M183.492 25.294C184.497 24.038 184.748 26.864 184.748 28.4341C184.748 29.7947 184.497 32.7043 183.492 33.4579C182.236 34.3999 180.352 32.2019 181.608 31.5739C182.864 30.9459 182.236 26.864 183.492 25.294Z" fill="#652D27"/>
<path d="M148.952 19.9557C149.705 19.2021 151.15 22.3631 151.778 24.0378C151.778 25.2939 150.522 28.4341 148.952 27.4917C147.382 26.5494 148.01 20.8977 148.952 19.9557Z" fill="#652D27"/>
<path d="M173.443 19.955C171.685 19.4526 170.408 15.9777 169.989 14.303C168.524 15.873 165.782 19.8294 166.535 23.0951C167.477 27.1771 175.641 20.5831 173.443 19.955Z" fill="#652D27"/>
<path d="M142.043 40.9925C133.502 29.1859 143.509 14.0928 149.579 8.02207C150.835 6.24272 155.671 2.55841 164.966 2.056C176.584 1.42799 176.27 6.13805 183.492 13.3601C190.714 20.5822 186.318 17.4422 187.888 29.0603C189.458 40.6785 174.072 46.0165 170.618 47.9006C167.164 49.7846 152.719 55.7507 142.043 40.9925Z" stroke="#652D27" stroke-width="3"/>
<path d="M165.194 140.257C161.332 138.673 159.954 139.019 159.748 139.391C158.758 139.704 154.426 139.886 152.94 139.886C151.455 139.886 139.077 138.524 138.829 137.905C138.582 137.286 139.325 124.29 139.943 119.339C140.562 114.387 140.067 105.475 139.943 102.009C139.82 98.5436 140.191 94.7065 141.057 93.2211C141.924 91.7358 151.95 94.0876 155.292 94.7065C158.634 95.3253 169.032 94.3351 170.888 94.7065C172.745 95.0778 180.543 95.5729 184.133 95.8205C187.722 96.068 189.455 97.4296 189.95 98.6674C190.445 99.9052 187.103 126.27 186.36 133.078C185.618 139.886 187.351 138.648 186.36 140.257C185.37 141.866 181.904 141.99 180.543 141.99C179.181 141.99 170.022 142.238 165.194 140.257Z" fill="#B4725D" stroke="#652D27" stroke-width="3"/>
<path d="M164.681 140.257C160.948 138.673 159.616 139.019 159.416 139.391C158.459 139.704 154.272 139.886 152.836 139.886C151.4 139.886 139.435 138.524 139.196 137.905C138.956 137.286 139.674 124.29 140.272 119.339C140.871 114.387 140.392 105.475 140.272 102.009C140.153 98.5436 140.512 94.7065 141.349 93.2211C142.187 91.7357 151.879 94.0876 155.109 94.7065C158.34 95.3253 168.39 94.3351 170.185 94.7065C171.98 95.0778 179.518 95.5729 182.988 95.8205C186.458 96.068 185.493 100.772 185.972 102.009C186.45 103.247 183.705 126.146 182.988 132.954C182.27 139.762 186.099 138.648 185.141 140.257C184.184 141.866 180.834 141.99 179.518 141.99C178.202 141.99 169.347 142.238 164.681 140.257Z" fill="#DBA999"/>
<path d="M177.263 108.012C177.544 109.705 175.277 127.138 174.109 135.643L174.109 128.175C174.109 123.197 176.913 105.896 177.263 108.012Z" fill="#652D27"/>
<path d="M157.399 105.628C157.679 107.321 155.413 124.754 154.245 133.26L154.245 125.792C154.245 120.813 157.049 103.512 157.399 105.628Z" fill="#652D27"/>
<path d="M164.543 100.066C164.894 101.759 162.061 119.192 160.6 127.697L160.6 120.229C160.6 115.251 164.105 97.95 164.543 100.066Z" fill="#652D27"/>
<path d="M170.112 104.833C170.392 106.526 168.126 123.96 166.958 132.465L166.958 124.997C166.958 120.018 169.761 102.718 170.112 104.833Z" fill="#652D27"/>
<path d="M173.29 101.656C173.57 103.349 171.304 120.782 170.135 129.287L170.135 121.819C170.135 116.841 172.939 99.5401 173.29 101.656Z" fill="#652D27"/>
<path d="M153.426 105.628C153.707 107.321 151.44 124.754 150.272 133.26L150.272 125.792C150.272 120.813 153.076 103.512 153.426 105.628Z" fill="#652D27"/>
<path d="M166.933 105.628C167.214 107.321 164.947 124.754 163.779 133.26L163.779 125.792C163.779 120.813 166.583 103.512 166.933 105.628Z" fill="#652D27"/>
<path d="M165.194 140.257C161.332 138.673 159.954 139.019 159.748 139.391C158.758 139.704 154.426 139.886 152.94 139.886C151.455 139.886 139.077 138.524 138.829 137.905C138.582 137.286 139.325 124.29 139.943 119.339C140.562 114.387 140.067 105.475 139.943 102.009C139.82 98.5436 140.191 94.7065 141.057 93.2211C141.924 91.7358 151.95 94.0876 155.292 94.7065C158.634 95.3254 169.032 94.3351 170.888 94.7065C172.745 95.0778 180.543 95.5729 184.133 95.8205C187.722 96.068 189.455 97.4296 189.95 98.6674C190.445 99.9052 187.103 126.27 186.36 133.078C185.618 139.886 187.351 138.648 186.36 140.257C185.37 141.866 181.904 141.99 180.543 141.99C179.181 141.99 170.022 142.238 165.194 140.257Z" stroke="#652D27" stroke-width="3"/>
<path d="M-0.0075264 138.957C-11.8141 147.498 -26.9072 137.491 -32.9779 131.421C-34.7573 130.165 -38.4416 125.329 -38.944 116.034C-39.572 104.416 -34.8619 104.73 -27.6399 97.5081C-20.4178 90.286 -23.5578 94.6821 -11.9397 93.1121C-0.321529 91.5421 5.01654 106.928 6.90056 110.382C8.78458 113.836 14.7507 128.281 -0.0075264 138.957Z" fill="#BA6F31"/>
<path d="M-4.08915 134.561C-13.2045 141.155 -26.9072 137.492 -32.9779 131.421C-34.7573 130.165 -38.4416 125.329 -38.944 116.035C-39.572 104.416 -34.8619 104.73 -27.6399 97.5084C-20.4178 90.2863 -23.5578 94.6823 -11.9397 93.1123C-0.321529 91.5423 5.95813 106.929 6.90056 110.383C7.84299 113.836 5.02619 127.967 -4.08915 134.561Z" fill="#E2A94F"/>
<path d="M-0.0075264 138.957C-11.8141 147.498 -26.9072 137.491 -32.9779 131.421C-34.7573 130.165 -38.4416 125.329 -38.944 116.034C-39.572 104.416 -34.8619 104.73 -27.6399 97.5081C-20.4178 90.286 -23.5578 94.6821 -11.9397 93.1121C-0.321529 91.5421 5.01654 106.928 6.90056 110.382C8.78458 113.836 14.7507 128.281 -0.0075264 138.957Z" stroke="#BA6F31" stroke-width="3"/>
<path d="M-35.9566 40.9925C-44.4975 29.1859 -34.4913 14.0928 -28.4206 8.02207C-27.1645 6.24272 -22.3289 2.55841 -13.0344 2.056C-1.41622 1.42799 -1.73022 6.13805 5.49187 13.3601C12.714 20.5822 8.3179 17.4422 9.88792 29.0603C11.4579 40.6785 -3.92825 46.0165 -7.38229 47.9006C-10.8363 49.7846 -25.2805 55.7507 -35.9566 40.9925Z" fill="#652D27"/>
<path d="M-31.5606 36.9108C-38.1547 27.7955 -34.4913 14.0928 -28.4206 8.02207C-27.1645 6.24272 -22.3289 2.55841 -13.0344 2.056C-1.41622 1.42799 -1.73022 6.13805 5.49187 13.3601C12.714 20.5822 8.3179 17.4422 9.88792 29.0603C11.4579 40.6785 -3.9284 46.9581 -7.38229 47.9006C-10.8362 48.843 -24.9665 46.0262 -31.5606 36.9108Z" fill="#B4725D"/>
<path d="M5.49203 25.293C6.49684 24.037 6.74805 26.8631 6.74805 28.4331C6.74805 29.7937 6.49684 32.7033 5.49203 33.4569C4.23602 34.3989 2.35199 32.2009 3.60801 31.5729C4.86402 30.9449 4.23602 26.8631 5.49203 25.293Z" fill="#652D27"/>
<path d="M-29.0484 19.9548C-28.2948 19.2011 -26.8504 22.3621 -26.2224 24.0368C-26.2224 25.2929 -27.4784 28.4331 -29.0484 27.4907C-30.6184 26.5484 -29.9904 20.8968 -29.0484 19.9548Z" fill="#652D27"/>
<path d="M-35.9566 40.9925C-44.4975 29.1859 -34.4913 14.0928 -28.4206 8.02207C-27.1645 6.24272 -22.3289 2.55841 -13.0344 2.056C-1.41622 1.42799 -1.73022 6.13805 5.49187 13.3601C12.714 20.5822 8.3179 17.4422 9.88792 29.0603C11.4579 40.6785 -3.92825 46.0165 -7.38229 47.9006C-10.8363 49.7846 -25.2805 55.7507 -35.9566 40.9925Z" stroke="#652D27" stroke-width="3"/>
<path d="M192.498 205.806C190.914 209.668 191.261 211.046 191.632 211.252C191.946 212.242 192.127 216.574 192.127 218.06C192.127 219.545 190.765 231.923 190.147 232.171C189.528 232.418 176.531 231.675 171.58 231.057C166.629 230.438 157.716 230.933 154.251 231.057C150.785 231.18 146.948 230.809 145.462 229.943C143.977 229.076 146.329 219.05 146.948 215.708C147.567 212.366 146.576 201.968 146.948 200.112C147.319 198.255 147.814 190.457 148.062 186.867C148.309 183.278 149.671 181.545 150.909 181.05C152.146 180.555 178.511 183.897 185.319 184.64C192.127 185.382 190.889 183.649 192.498 184.64C194.108 185.63 194.231 189.096 194.231 190.457C194.231 191.819 194.479 200.978 192.498 205.806Z" fill="#E2A94F" stroke="#BA6F31" stroke-width="3"/>
<path d="M192.498 206.319C190.914 210.052 191.261 211.384 191.632 211.584C191.946 212.541 192.127 216.728 192.127 218.164C192.127 219.6 190.765 231.565 190.147 231.804C189.528 232.044 176.531 231.326 171.58 230.728C166.629 230.129 157.716 230.608 154.251 230.728C150.785 230.847 146.948 230.488 145.462 229.651C143.977 228.813 146.329 219.121 146.948 215.891C147.567 212.66 146.576 202.61 146.948 200.815C147.319 199.02 147.814 191.482 148.062 188.012C148.309 184.542 153.013 185.507 154.251 185.028C155.488 184.55 178.388 187.295 185.195 188.012C192.003 188.73 190.889 184.901 192.498 185.859C194.108 186.816 194.231 190.166 194.231 191.482C194.231 192.798 194.479 201.653 192.498 206.319Z" fill="#FAD488"/>
<path d="M160.254 193.736C161.946 193.456 179.38 195.723 187.885 196.891L180.417 196.891C175.438 196.891 158.138 194.087 160.254 193.736Z" fill="#BA6F31"/>
<path d="M157.87 213.6C159.563 213.32 176.996 215.586 185.501 216.755L178.033 216.755C173.055 216.755 155.754 213.951 157.87 213.6Z" fill="#BA6F31"/>
<path d="M152.307 206.456C154 206.106 171.433 208.939 179.938 210.399L172.471 210.399C167.492 210.399 150.191 206.894 152.307 206.456Z" fill="#BA6F31"/>
<path d="M157.075 200.888C158.768 200.607 176.201 202.874 184.706 204.042L177.238 204.042C172.26 204.042 154.959 201.238 157.075 200.888Z" fill="#BA6F31"/>
<path d="M153.897 197.71C155.59 197.43 173.023 199.696 181.528 200.865L174.06 200.865C169.082 200.865 151.781 198.061 153.897 197.71Z" fill="#BA6F31"/>
<path d="M157.87 217.574C159.563 217.294 176.996 219.56 185.501 220.729L178.033 220.729C173.055 220.729 155.754 217.925 157.87 217.574Z" fill="#BA6F31"/>
<path d="M157.87 204.067C159.563 203.786 176.996 206.053 185.501 207.221L178.033 207.221C173.055 207.221 155.754 204.417 157.87 204.067Z" fill="#BA6F31"/>
<path d="M192.498 205.806C190.914 209.668 191.261 211.046 191.632 211.252C191.946 212.242 192.127 216.574 192.127 218.06C192.127 219.545 190.765 231.923 190.147 232.171C189.528 232.418 176.531 231.675 171.58 231.057C166.629 230.438 157.716 230.933 154.251 231.057C150.785 231.18 146.948 230.809 145.462 229.943C143.977 229.076 146.329 219.05 146.948 215.708C147.567 212.366 146.576 201.968 146.948 200.112C147.319 198.255 147.814 190.457 148.062 186.867C148.309 183.278 149.671 181.545 150.909 181.05C152.146 180.555 178.511 183.897 185.319 184.64C192.127 185.382 190.889 183.649 192.498 184.64C194.108 185.63 194.231 189.096 194.231 190.457C194.231 191.819 194.479 200.978 192.498 205.806Z" stroke="#BA6F31" stroke-width="3"/>
</svg>
